<svg width="727" height="200" viewBox="0 0 727 200" fill="none" xmlns="http://www.w3.org/2000/svg">
<path d="M20.6817 112.627C16.0228 112.627 12.2139 111.053 9.25485 107.906C6.29581 104.758 4.8163 100.351 4.8163 94.6843C4.8163 90.655 5.50884 86.846 6.89392 83.2574C8.279 79.6058 10.1992 76.3635 12.6546 73.5304C15.1729 70.6973 18.0375 68.4622 21.2484 66.8253C24.5222 65.1884 28.0164 64.37 31.7309 64.37C33.9344 64.37 35.9806 64.7162 37.8693 65.4088C39.821 66.1013 41.3635 67.0772 42.4967 68.3363C43.6929 69.5955 44.2596 71.075 44.1966 72.7749C44.1337 74.4747 43.5985 75.8283 42.5912 76.8357C41.5839 77.78 40.2617 78.2522 38.6248 78.2522C36.862 78.2522 35.4454 77.7171 34.3751 76.6468C33.3049 75.5765 32.4549 74.3488 31.8253 72.9637L31.2587 71.3583C30.3773 69.2807 29.5903 68.053 28.8978 67.6753C28.2682 67.2346 27.1664 67.6753 25.5925 68.9974C23.8926 70.4454 22.2872 72.3971 20.7762 74.8525C19.3281 77.3079 18.1634 80.0151 17.282 82.9741C16.4006 85.9331 15.9599 88.9551 15.9599 92.0401C15.9599 96.7619 16.9672 100.256 18.9819 102.523C21.0595 104.726 23.8297 105.828 27.2924 105.828C29.5588 105.828 31.7939 105.104 33.9974 103.656C36.2009 102.208 38.2471 100.193 40.1358 97.6119L41.4579 98.5562C40.1358 101.012 38.4359 103.31 36.3583 105.45C34.2807 107.591 31.8883 109.322 29.1811 110.644C26.5369 111.966 23.7037 112.627 20.6817 112.627ZM54.0277 112.627C51.8871 112.627 50.0298 111.998 48.4559 110.739C46.9449 109.417 46.1894 107.465 46.1894 104.884C46.1894 103.435 46.3468 101.862 46.6616 100.162C46.9764 98.4618 47.3226 96.7934 47.7004 95.1565L51.8556 76.5524C52.4222 74.097 51.5723 72.3027 49.3058 71.1694L47.5115 70.4139L47.6059 69.3751L65.4546 64.2755L66.3045 65.031L59.6939 93.9288C59.3162 95.5028 59.0014 96.9193 58.7495 98.1785C58.4977 99.4376 58.3718 100.602 58.3718 101.673C58.3718 103.058 58.6866 104.065 59.3162 104.695C59.9457 105.261 60.7642 105.545 61.7715 105.545C63.2196 105.545 64.825 105.041 66.5878 104.034C68.3507 102.963 70.3968 101.326 72.7262 99.1229C72.7892 98.7451 72.8836 98.3359 73.0096 97.8952L76.2204 82.6908C76.7241 80.2354 77.1963 77.78 77.637 75.3247C78.1406 72.8064 78.6128 70.288 79.0535 67.7697L90.9526 64.2755L91.9914 65.1255L84.5309 99.4062C84.0272 101.61 83.7754 103.341 83.7754 104.6C83.7754 105.922 84.342 106.583 85.4753 106.583C86.3567 106.583 87.301 106.237 88.3084 105.545C89.3157 104.789 90.5434 103.687 91.9914 102.239L93.1247 103.373C91.5507 105.702 89.5361 107.843 87.0807 109.794C84.6883 111.683 81.9496 112.627 78.8647 112.627C76.913 112.627 75.276 111.966 73.9539 110.644C72.6948 109.259 72.0652 107.307 72.0652 104.789C72.0652 103.845 72.1281 102.932 72.2541 102.05C68.9802 105.324 65.8008 107.906 62.7159 109.794C59.6939 111.683 56.7978 112.627 54.0277 112.627ZM95.8338 111.872L94.8895 111.211L102.067 76.6468C102.381 75.0099 102.287 73.8137 101.783 73.0582C101.28 72.2397 100.43 71.5787 99.2336 71.075L97.817 70.4139L98.0059 69.4696L114.438 64.2755L115.382 65.1255L112.833 80.7076C114.155 77.6856 115.697 74.9469 117.46 72.4916C119.223 70.0362 121.08 68.0845 123.032 66.6365C124.983 65.1255 126.935 64.37 128.887 64.37C130.839 64.37 132.413 64.9051 133.609 65.9754C134.805 66.9827 135.403 68.3363 135.403 70.0362C135.403 71.799 134.868 73.2471 133.798 74.3803C132.79 75.5136 131.405 76.0802 129.642 76.0802C128.257 76.0802 126.935 75.7339 125.676 75.0414C124.417 74.2859 123.189 73.2156 121.993 71.8305C119.789 73.4674 117.901 75.608 116.327 78.2522C114.753 80.8335 113.305 83.6666 111.983 86.7516L111.038 91.0957C110.346 94.4325 109.685 97.7693 109.055 101.106C108.425 104.443 107.796 107.811 107.166 111.211L95.8338 111.872ZM143.285 112.627C139.318 112.627 136.108 111.84 133.652 110.266C131.197 108.692 129.969 106.457 129.969 103.561C129.969 102.05 130.504 100.728 131.575 99.595C132.645 98.4618 134.03 97.8952 135.73 97.8952C138.878 97.8952 140.829 99.8154 141.585 103.656L142.152 106.3C142.466 107.622 142.844 108.692 143.285 109.511C143.789 110.329 144.733 110.739 146.118 110.739C147.692 110.739 149.077 110.078 150.273 108.755C151.469 107.433 152.068 105.608 152.068 103.278C152.068 101.515 151.501 99.8154 150.368 98.1785C149.297 96.5416 147.472 94.7473 144.89 92.7956C142.309 90.7809 140.231 88.7033 138.657 86.5627C137.083 84.3592 136.296 81.7464 136.296 78.7244C136.296 76.0802 136.958 73.6878 138.28 71.5472C139.665 69.3437 141.648 67.6123 144.229 66.3531C146.811 65.031 149.864 64.37 153.39 64.37C157.482 64.37 160.693 65.1884 163.022 66.8253C165.415 68.4622 166.611 70.5713 166.611 73.1526C166.611 74.5377 166.202 75.7024 165.383 76.6468C164.565 77.5282 163.337 77.9689 161.7 77.9689C158.678 77.9689 156.632 76.1431 155.562 72.4916L154.617 69.8473C154.303 68.5882 153.925 67.7067 153.484 67.2031C153.043 66.6994 152.351 66.4476 151.406 66.4476C150.399 66.4476 149.36 67.0142 148.29 68.1474C147.22 69.2177 146.685 70.9491 146.685 73.3415C146.685 75.608 147.346 77.6856 148.668 79.5744C150.053 81.4001 152.099 83.3204 154.806 85.335C157.576 87.4126 159.591 89.4273 160.85 91.379C162.172 93.3307 162.833 95.6916 162.833 98.4618C162.833 101.043 162.078 103.404 160.567 105.545C159.056 107.685 156.852 109.417 153.956 110.739C151.06 111.998 147.503 112.627 143.285 112.627ZM184.198 59.0815C182.435 59.0815 180.892 58.5149 179.57 57.3816C178.311 56.1854 177.681 54.6114 177.681 52.6597C177.681 50.4562 178.437 48.6619 179.948 47.2768C181.522 45.8288 183.285 45.1048 185.236 45.1048C187.125 45.1048 188.668 45.7029 189.864 46.8991C191.06 48.0953 191.658 49.6378 191.658 51.5265C191.658 53.6671 190.903 55.4614 189.392 56.9094C187.881 58.3575 186.149 59.0815 184.198 59.0815ZM175.415 112.627C173.463 112.627 171.858 112.124 170.599 111.116C169.339 110.109 168.71 108.63 168.71 106.678C168.71 105.545 168.836 104.191 169.088 102.617C169.339 101.043 169.623 99.4691 169.938 97.8952L174.376 76.6468C174.943 74.0655 174.03 72.2397 171.637 71.1694L170.126 70.4139L170.221 69.3751L187.975 64.2755L188.919 65.1255L181.553 99.3117C181.301 100.445 181.113 101.421 180.987 102.239C180.861 102.995 180.798 103.75 180.798 104.506C180.798 105.891 181.427 106.583 182.687 106.583C183.631 106.583 184.575 106.3 185.52 105.733C186.464 105.104 187.66 104.097 189.108 102.711L189.958 103.561C188.384 105.891 186.37 108 183.914 109.889C181.522 111.714 178.689 112.627 175.415 112.627ZM205.483 112.061L204.538 111.305C203.972 104.38 203.374 97.9581 202.744 92.0401C202.115 86.059 201.485 80.2039 200.855 74.4747C200.729 73.0267 200.446 72.1138 200.005 71.7361C199.565 71.2954 199.061 71.075 198.494 71.075C197.361 71.075 195.787 72.2712 193.773 74.6636L192.639 73.5304C194.843 70.5084 196.952 68.2419 198.967 66.7309C201.044 65.1569 203.153 64.37 205.294 64.37C209.701 64.37 212.188 67.2975 212.754 73.1526C213.132 77.6226 213.51 82.4389 213.888 87.6015C214.328 92.7641 214.738 98.2729 215.115 104.128C217.508 101.232 219.743 98.4618 221.82 95.8176C223.961 93.1104 225.976 90.3087 227.864 87.4126C228.935 85.7757 229.533 84.2018 229.659 82.6908C229.785 81.1168 229.501 79.4484 228.809 77.6856L227.203 73.2471C226.385 70.7917 226.511 68.6511 227.581 66.8253C228.714 64.9995 230.351 64.0867 232.492 64.0867C234.695 64.0867 236.238 64.7477 237.119 66.0698C238.064 67.392 238.536 68.9659 238.536 70.7917C238.536 72.0509 238.19 73.5933 237.497 75.4191C236.867 77.2449 235.64 79.7003 233.814 82.7852C231.359 86.8775 228.211 91.442 224.37 96.4786C220.53 101.515 216.186 106.489 211.338 111.4L205.483 112.061ZM254.298 112.627C249.576 112.627 245.736 111.085 242.777 108C239.818 104.915 238.338 100.539 238.338 94.8732C238.338 90.8439 239.031 87.0034 240.416 83.3518C241.801 79.7003 243.721 76.4579 246.176 73.6248C248.695 70.7287 251.591 68.4622 254.865 66.8253C258.138 65.1884 261.696 64.37 265.536 64.37C269.502 64.37 272.524 65.2829 274.602 67.1086C276.743 68.8715 277.813 71.2324 277.813 74.1914C277.813 76.6468 276.648 79.0707 274.319 81.4631C272.052 83.8555 268.841 86.0276 264.686 87.9793C260.531 89.868 255.652 91.316 250.048 92.3234C250.111 96.6675 251.056 99.8469 252.881 101.862C254.707 103.876 257.226 104.884 260.436 104.884C263.144 104.884 265.63 104.16 267.897 102.711C270.163 101.2 272.084 99.4376 273.658 97.423L274.602 98.084C273.343 100.539 271.706 102.869 269.691 105.072C267.74 107.276 265.473 109.102 262.892 110.55C260.31 111.935 257.446 112.627 254.298 112.627ZM264.875 66.9198C263.427 66.9198 261.853 67.5493 260.153 68.8085C258.516 70.0677 256.942 71.799 255.431 74.0026C253.983 76.1431 252.756 78.63 251.748 81.4631C250.804 84.2333 250.237 87.1923 250.048 90.3402C256.974 88.4514 261.884 85.9646 264.781 82.8797C267.74 79.7947 269.219 76.3005 269.219 72.3971C269.219 70.5084 268.81 69.1233 267.991 68.2419C267.173 67.3605 266.134 66.9198 264.875 66.9198ZM286.79 112.438C284.649 112.438 282.886 111.777 281.501 110.455C280.179 109.07 279.518 107.433 279.518 105.545C279.518 103.152 280.368 101.138 282.068 99.5006C283.831 97.8637 285.845 97.0452 288.112 97.0452C290.252 97.0452 291.984 97.7378 293.306 99.1229C294.691 100.508 295.383 102.176 295.383 104.128C295.383 106.457 294.502 108.441 292.739 110.078C291.039 111.652 289.056 112.438 286.79 112.438Z" fill="white"/>
<path opacity="0.6" d="M9.95646 168.813H14.9877V136.878H5.66671V143.181H1.8536V134.283H32.6763V143.181H28.8632V136.878H19.5422V168.813H24.5734V171.249H9.95646V168.813ZM36.4017 168.813H40.3207V135.078L36.4017 134.389V132.536L44.6634 131V148H44.8753C45.0871 147.47 45.4049 146.923 45.8285 146.358C46.2522 145.793 46.7818 145.281 47.4173 144.822C48.0882 144.363 48.8472 143.993 49.6946 143.71C50.5773 143.428 51.5659 143.287 52.6604 143.287C55.9439 143.287 58.2918 144.152 59.704 145.882C61.1163 147.576 61.8224 150.136 61.8224 153.561V168.813H65.7415V171.249H53.5607V168.813H57.4797V153.931C57.4797 151.354 56.9678 149.448 55.9439 148.212C54.92 146.941 53.2959 146.305 51.0716 146.305C50.2948 146.305 49.5181 146.411 48.7413 146.623C47.9999 146.835 47.3114 147.17 46.6759 147.629C46.0757 148.088 45.5814 148.653 45.193 149.324C44.8399 149.995 44.6634 150.789 44.6634 151.707V168.813H48.5824V171.249H36.4017V168.813ZM82.3721 171.885C80.4303 171.885 78.6826 171.549 77.1291 170.879C75.6109 170.173 74.3222 169.202 73.263 167.966C72.2038 166.73 71.3918 165.23 70.8269 163.464C70.2619 161.699 69.9795 159.739 69.9795 157.586C69.9795 155.467 70.2796 153.543 70.8798 151.813C71.5153 150.048 72.3627 148.53 73.4219 147.259C74.5164 145.987 75.8051 145.017 77.288 144.346C78.7708 143.64 80.3949 143.287 82.1603 143.287C83.9609 143.287 85.5674 143.604 86.9796 144.24C88.3919 144.875 89.5747 145.776 90.5279 146.941C91.5165 148.071 92.2756 149.43 92.8052 151.019C93.3348 152.607 93.5996 154.337 93.5996 156.209V157.427H74.7988V158.804C74.7988 161.805 75.5403 164.17 77.0232 165.9C78.5413 167.63 80.5538 168.495 83.0606 168.495C85.2496 168.495 86.9796 168.054 88.2507 167.171C89.557 166.253 90.5809 165.071 91.3223 163.623L93.07 164.735C92.717 165.653 92.2227 166.554 91.5871 167.436C90.9869 168.284 90.2455 169.043 89.3628 169.714C88.4802 170.349 87.4563 170.861 86.2911 171.249C85.126 171.673 83.8197 171.885 82.3721 171.885ZM74.7988 154.991H89.0451V154.461C89.0451 153.225 88.9038 152.078 88.6214 151.019C88.3742 149.959 87.9682 149.042 87.4033 148.265C86.8384 147.488 86.1146 146.888 85.2319 146.464C84.3846 146.005 83.3607 145.776 82.1603 145.776C80.9598 145.776 79.9007 145.987 78.9827 146.411C78.0647 146.835 77.288 147.435 76.6524 148.212C76.0522 148.989 75.5932 149.907 75.2755 150.966C74.9577 151.99 74.7988 153.119 74.7988 154.355V154.991ZM117.037 137.62C116.119 137.62 115.413 137.355 114.919 136.825C114.46 136.261 114.23 135.59 114.23 134.813V134.548C114.23 133.771 114.46 133.118 114.919 132.589C115.413 132.024 116.119 131.741 117.037 131.741C117.955 131.741 118.661 132.024 119.156 132.589C119.65 133.118 119.897 133.771 119.897 134.548V134.813C119.897 135.59 119.65 136.261 119.156 136.825C118.661 137.355 117.955 137.62 117.037 137.62ZM110.947 168.813H114.866V147.364L110.947 146.676V144.875L119.209 143.287V168.813H123.128V171.249H110.947V168.813ZM127.652 168.813H131.571V147.364L127.652 146.676V144.875L135.808 143.287V148.053H136.02C136.232 147.523 136.549 146.976 136.973 146.411C137.432 145.846 137.979 145.334 138.615 144.875C139.286 144.416 140.062 144.046 140.945 143.763C141.828 143.445 142.799 143.287 143.858 143.287C147.141 143.287 149.489 144.152 150.901 145.882C152.349 147.576 153.073 150.136 153.073 153.561V168.813H156.992V171.249H144.811V168.813H148.73V153.931C148.73 148.847 146.594 146.305 142.322 146.305C141.545 146.305 140.768 146.411 139.992 146.623C139.25 146.835 138.562 147.17 137.926 147.629C137.326 148.088 136.832 148.653 136.443 149.324C136.09 149.995 135.914 150.789 135.914 151.707V168.813H139.833V171.249H127.652V168.813ZM169.526 171.567C167.655 171.567 166.366 171.196 165.66 170.455C164.954 169.678 164.601 168.372 164.601 166.536V146.517H161.105V143.922H161.582C162.323 143.922 162.906 143.869 163.33 143.763C163.789 143.657 164.142 143.516 164.389 143.339C164.671 143.128 164.865 142.88 164.971 142.598C165.113 142.28 165.236 141.927 165.342 141.539L166.56 136.825H168.943V143.922H175.987V146.517H168.943V168.654H175.987V170.402C175.669 170.579 175.263 170.737 174.769 170.879C174.31 171.02 173.78 171.143 173.18 171.249C172.615 171.355 172.015 171.426 171.38 171.461C170.744 171.532 170.126 171.567 169.526 171.567ZM192.221 171.885C188.938 171.885 186.572 171.038 185.125 169.343C183.712 167.613 183.006 165.018 183.006 161.558V147.364L179.087 146.676V144.875L187.349 143.287V161.187C187.349 166.306 189.485 168.866 193.757 168.866C194.534 168.866 195.293 168.76 196.034 168.548C196.811 168.337 197.5 168.001 198.1 167.542C198.735 167.083 199.23 166.518 199.583 165.847C199.971 165.177 200.165 164.382 200.165 163.464V147.364L196.246 146.676V144.875L204.508 143.287V167.807L208.427 168.495V170.296L200.271 171.885V167.118H200.059C199.848 167.648 199.512 168.195 199.053 168.76C198.629 169.325 198.082 169.837 197.411 170.296C196.776 170.755 196.017 171.126 195.134 171.408C194.251 171.726 193.281 171.885 192.221 171.885ZM219.026 137.62C218.109 137.62 217.402 137.355 216.908 136.825C216.449 136.261 216.22 135.59 216.22 134.813V134.548C216.22 133.771 216.449 133.118 216.908 132.589C217.402 132.024 218.109 131.741 219.026 131.741C219.944 131.741 220.651 132.024 221.145 132.589C221.639 133.118 221.886 133.771 221.886 134.548V134.813C221.886 135.59 221.639 136.261 221.145 136.825C220.651 137.355 219.944 137.62 219.026 137.62ZM212.936 168.813H216.855V147.364L212.936 146.676V144.875L221.198 143.287V168.813H225.117V171.249H212.936V168.813ZM237.691 171.567C235.82 171.567 234.531 171.196 233.825 170.455C233.119 169.678 232.766 168.372 232.766 166.536V146.517H229.27V143.922H229.747C230.489 143.922 231.071 143.869 231.495 143.763C231.954 143.657 232.307 143.516 232.554 143.339C232.836 143.128 233.031 142.88 233.137 142.598C233.278 142.28 233.401 141.927 233.507 141.539L234.725 136.825H237.109V143.922H244.152V146.517H237.109V168.654H244.152V170.402C243.834 170.579 243.428 170.737 242.934 170.879C242.475 171.02 241.946 171.143 241.345 171.249C240.78 171.355 240.18 171.426 239.545 171.461C238.909 171.532 238.291 171.567 237.691 171.567ZM254.402 137.62C253.484 137.62 252.778 137.355 252.284 136.825C251.825 136.261 251.595 135.59 251.595 134.813V134.548C251.595 133.771 251.825 133.118 252.284 132.589C252.778 132.024 253.484 131.741 254.402 131.741C255.32 131.741 256.026 132.024 256.52 132.589C257.015 133.118 257.262 133.771 257.262 134.548V134.813C257.262 135.59 257.015 136.261 256.52 136.825C256.026 137.355 255.32 137.62 254.402 137.62ZM248.312 168.813H252.231V147.364L248.312 146.676V144.875L256.573 143.287V168.813H260.492V171.249H248.312V168.813ZM265.229 146.358H262.475V143.922H273.808V146.358H269.995L277.356 166.377H277.568L284.718 146.358H280.905V143.922H290.543V146.358H287.79L278.204 171.249H274.867L265.229 146.358ZM304.918 171.885C302.976 171.885 301.228 171.549 299.674 170.879C298.156 170.173 296.868 169.202 295.808 167.966C294.749 166.73 293.937 165.23 293.372 163.464C292.807 161.699 292.525 159.739 292.525 157.586C292.525 155.467 292.825 153.543 293.425 151.813C294.061 150.048 294.908 148.53 295.967 147.259C297.062 145.987 298.35 145.017 299.833 144.346C301.316 143.64 302.94 143.287 304.706 143.287C306.506 143.287 308.113 143.604 309.525 144.24C310.937 144.875 312.12 145.776 313.073 146.941C314.062 148.071 314.821 149.43 315.351 151.019C315.88 152.607 316.145 154.337 316.145 156.209V157.427H297.344V158.804C297.344 161.805 298.086 164.17 299.569 165.9C301.087 167.63 303.099 168.495 305.606 168.495C307.795 168.495 309.525 168.054 310.796 167.171C312.102 166.253 313.126 165.071 313.868 163.623L315.615 164.735C315.262 165.653 314.768 166.554 314.133 167.436C313.532 168.284 312.791 169.043 311.908 169.714C311.026 170.349 310.002 170.861 308.837 171.249C307.671 171.673 306.365 171.885 304.918 171.885ZM297.344 154.991H311.59V154.461C311.59 153.225 311.449 152.078 311.167 151.019C310.92 149.959 310.514 149.042 309.949 148.265C309.384 147.488 308.66 146.888 307.777 146.464C306.93 146.005 305.906 145.776 304.706 145.776C303.505 145.776 302.446 145.987 301.528 146.411C300.61 146.835 299.833 147.435 299.198 148.212C298.598 148.989 298.139 149.907 297.821 150.966C297.503 151.99 297.344 153.119 297.344 154.355V154.991ZM333.757 168.813H337.729V136.719H333.757V134.283H346.256V136.719H342.284V168.654H355.841V161.875H359.654V171.249H333.757V168.813ZM365.202 168.813H369.174V136.719H365.202V134.283H377.701V136.719H373.729V168.654H387.286V161.875H391.099V171.249H365.202V168.813ZM396.647 168.813H400.619V136.719H396.647V134.283H405.968L416.772 157.162H416.931L428.264 134.283H437.002V136.719H433.03V168.813H437.002V171.249H424.504V168.813H428.476V139.632H428.264L425.934 144.769L415.766 165.053L406.709 146.093L403.744 139.632H403.532V168.813H407.504V171.249H396.647V168.813ZM454.611 168.813H458.53V146.517H454.611V143.922H458.53V139.632C458.53 138.361 458.742 137.196 459.166 136.137C459.589 135.078 460.172 134.177 460.913 133.436C461.69 132.659 462.59 132.059 463.614 131.635C464.674 131.212 465.821 131 467.057 131C468.963 131 470.464 131.371 471.558 132.112C472.688 132.853 473.253 133.913 473.253 135.29C473.253 136.208 472.988 136.949 472.459 137.514C471.964 138.043 471.311 138.308 470.499 138.308C469.722 138.308 469.087 138.061 468.593 137.567C468.134 137.073 467.904 136.472 467.904 135.766C467.904 134.53 468.381 133.718 469.334 133.33V133.224C469.087 133.154 468.804 133.101 468.487 133.065C468.169 133.03 467.816 133.012 467.427 133.012C465.945 133.012 464.815 133.542 464.038 134.601C463.261 135.66 462.873 137.143 462.873 139.05V143.922H468.804V146.517H462.873V168.813H467.851V171.249H454.611V168.813ZM472.978 168.813H476.897V147.364L472.978 146.676V144.875L481.133 143.287V148.053H481.398C481.645 147.488 481.945 146.923 482.298 146.358C482.687 145.793 483.146 145.281 483.675 144.822C484.24 144.363 484.876 143.993 485.582 143.71C486.323 143.428 487.171 143.287 488.124 143.287C489.678 143.287 490.913 143.657 491.831 144.399C492.785 145.14 493.261 146.217 493.261 147.629C493.261 148.688 492.996 149.518 492.467 150.118C491.937 150.719 491.249 151.019 490.401 151.019C489.448 151.019 488.689 150.772 488.124 150.277C487.559 149.748 487.277 149.077 487.277 148.265C487.277 147.559 487.418 146.994 487.7 146.57C488.018 146.111 488.371 145.846 488.76 145.776V145.67C488.618 145.634 488.442 145.617 488.23 145.617C488.018 145.581 487.753 145.564 487.436 145.564C486.694 145.564 485.953 145.758 485.211 146.146C484.47 146.499 483.799 146.976 483.199 147.576C482.634 148.141 482.157 148.794 481.769 149.536C481.416 150.277 481.239 151.019 481.239 151.76V168.813H486.218V171.249H472.978V168.813ZM504.561 171.885C502.019 171.885 500.024 171.232 498.576 169.925C497.164 168.584 496.458 166.765 496.458 164.47C496.458 163.164 496.67 162.017 497.093 161.028C497.517 160.004 498.205 159.157 499.159 158.486C500.147 157.815 501.418 157.303 502.972 156.95C504.525 156.597 506.414 156.421 508.639 156.421H512.558V152.396C512.558 150.242 512.028 148.6 510.969 147.47C509.945 146.305 508.391 145.723 506.308 145.723C505.39 145.723 504.543 145.811 503.766 145.987C502.99 146.129 502.354 146.341 501.86 146.623V146.729C502.248 146.941 502.619 147.259 502.972 147.682C503.36 148.106 503.554 148.706 503.554 149.483C503.554 150.401 503.29 151.125 502.76 151.654C502.23 152.148 501.524 152.396 500.642 152.396C499.794 152.396 499.088 152.148 498.523 151.654C497.994 151.125 497.729 150.348 497.729 149.324C497.729 148.547 497.958 147.806 498.417 147.1C498.876 146.358 499.529 145.705 500.377 145.14C501.224 144.575 502.266 144.134 503.501 143.816C504.772 143.463 506.202 143.287 507.791 143.287C510.651 143.287 512.875 144.028 514.464 145.511C516.088 146.994 516.9 149.077 516.9 151.76V168.972H520.872V170.826C520.484 171.108 519.954 171.355 519.284 171.567C518.648 171.779 517.924 171.885 517.112 171.885C515.735 171.885 514.676 171.497 513.935 170.72C513.193 169.943 512.822 168.901 512.822 167.595V167.224H512.558C512.31 167.825 511.975 168.407 511.551 168.972C511.163 169.537 510.651 170.031 510.016 170.455C509.38 170.879 508.603 171.214 507.685 171.461C506.803 171.744 505.761 171.885 504.561 171.885ZM506.414 168.972C508.109 168.972 509.557 168.548 510.757 167.701C511.957 166.818 512.558 165.477 512.558 163.676V158.539H509.115C507.597 158.539 506.326 158.663 505.302 158.91C504.278 159.122 503.466 159.457 502.866 159.916C502.266 160.34 501.824 160.869 501.542 161.505C501.295 162.14 501.171 162.882 501.171 163.729V164.841C501.171 166.183 501.63 167.207 502.548 167.913C503.466 168.619 504.755 168.972 506.414 168.972ZM525.369 168.813H529.288V147.364L525.369 146.676V144.875L533.524 143.287V148.053H533.736C533.948 147.488 534.266 146.923 534.689 146.358C535.113 145.793 535.643 145.281 536.278 144.822C536.949 144.363 537.708 143.993 538.556 143.71C539.403 143.428 540.356 143.287 541.415 143.287C543.746 143.287 545.599 143.728 546.976 144.611C548.353 145.493 549.306 146.852 549.836 148.688H549.995C550.277 148.053 550.648 147.417 551.107 146.782C551.566 146.146 552.131 145.564 552.802 145.034C553.473 144.505 554.249 144.081 555.132 143.763C556.05 143.445 557.109 143.287 558.31 143.287C561.593 143.287 563.923 144.152 565.3 145.882C566.713 147.612 567.419 150.189 567.419 153.614V168.813H571.338V171.249H559.157V168.813H563.076V153.931C563.076 148.847 560.975 146.305 556.774 146.305C555.997 146.305 555.22 146.429 554.444 146.676C553.702 146.888 553.031 147.223 552.431 147.682C551.866 148.106 551.407 148.671 551.054 149.377C550.701 150.048 550.524 150.842 550.524 151.76V168.813H554.444V171.249H542.263V168.813H546.182V153.931C546.182 148.847 544.099 146.305 539.932 146.305C539.12 146.305 538.344 146.429 537.602 146.676C536.861 146.888 536.19 147.223 535.59 147.682C534.99 148.106 534.513 148.671 534.16 149.377C533.807 150.048 533.63 150.842 533.63 151.76V168.813H537.549V171.249H525.369V168.813ZM587.974 171.885C586.032 171.885 584.284 171.549 582.731 170.879C581.213 170.173 579.924 169.202 578.865 167.966C577.805 166.73 576.993 165.23 576.428 163.464C575.864 161.699 575.581 159.739 575.581 157.586C575.581 155.467 575.881 153.543 576.481 151.813C577.117 150.048 577.964 148.53 579.024 147.259C580.118 145.987 581.407 145.017 582.89 144.346C584.372 143.64 585.997 143.287 587.762 143.287C589.563 143.287 591.169 143.604 592.581 144.24C593.994 144.875 595.176 145.776 596.13 146.941C597.118 148.071 597.877 149.43 598.407 151.019C598.936 152.607 599.201 154.337 599.201 156.209V157.427H580.4V158.804C580.4 161.805 581.142 164.17 582.625 165.9C584.143 167.63 586.155 168.495 588.662 168.495C590.851 168.495 592.581 168.054 593.852 167.171C595.159 166.253 596.183 165.071 596.924 163.623L598.672 164.735C598.319 165.653 597.824 166.554 597.189 167.436C596.589 168.284 595.847 169.043 594.964 169.714C594.082 170.349 593.058 170.861 591.893 171.249C590.728 171.673 589.421 171.885 587.974 171.885ZM580.4 154.991H594.647V154.461C594.647 153.225 594.505 152.078 594.223 151.019C593.976 149.959 593.57 149.042 593.005 148.265C592.44 147.488 591.716 146.888 590.834 146.464C589.986 146.005 588.962 145.776 587.762 145.776C586.561 145.776 585.502 145.987 584.584 146.411C583.666 146.835 582.89 147.435 582.254 148.212C581.654 148.989 581.195 149.907 580.877 150.966C580.559 151.99 580.4 153.119 580.4 154.355V154.991ZM604.769 146.358H602.015V143.922H612.978V146.358H609.165L614.62 167.013H614.831L621.451 143.922H625.106L631.196 167.013H631.408L636.969 146.358H633.156V143.922H642.318V146.358H639.564L632.626 171.249H628.389L622.511 149.801H622.299L615.891 171.249H611.654L604.769 146.358ZM657.332 169.29C658.639 169.29 659.768 169.078 660.722 168.654C661.71 168.195 662.505 167.577 663.105 166.801C663.74 165.989 664.199 165.053 664.482 163.994C664.8 162.899 664.958 161.717 664.958 160.446V154.726C664.958 153.455 664.8 152.29 664.482 151.231C664.199 150.136 663.74 149.2 663.105 148.424C662.505 147.612 661.71 146.994 660.722 146.57C659.768 146.111 658.639 145.882 657.332 145.882C655.991 145.882 654.843 146.111 653.89 146.57C652.937 146.994 652.142 147.612 651.507 148.424C650.906 149.2 650.447 150.136 650.13 151.231C649.847 152.29 649.706 153.455 649.706 154.726V160.446C649.706 161.717 649.847 162.899 650.13 163.994C650.447 165.053 650.906 165.989 651.507 166.801C652.142 167.577 652.937 168.195 653.89 168.654C654.843 169.078 655.991 169.29 657.332 169.29ZM657.332 171.885C655.461 171.885 653.749 171.549 652.195 170.879C650.642 170.208 649.318 169.255 648.223 168.019C647.129 166.748 646.281 165.247 645.681 163.517C645.081 161.752 644.781 159.775 644.781 157.586C644.781 155.432 645.081 153.472 645.681 151.707C646.281 149.942 647.129 148.441 648.223 147.206C649.318 145.935 650.642 144.964 652.195 144.293C653.749 143.622 655.461 143.287 657.332 143.287C659.203 143.287 660.916 143.622 662.469 144.293C664.023 144.964 665.347 145.935 666.441 147.206C667.536 148.441 668.383 149.942 668.983 151.707C669.584 153.472 669.884 155.432 669.884 157.586C669.884 159.775 669.584 161.752 668.983 163.517C668.383 165.247 667.536 166.748 666.441 168.019C665.347 169.255 664.023 170.208 662.469 170.879C660.916 171.549 659.203 171.885 657.332 171.885ZM674.939 168.813H678.858V147.364L674.939 146.676V144.875L683.095 143.287V148.053H683.36C683.607 147.488 683.907 146.923 684.26 146.358C684.648 145.793 685.107 145.281 685.637 144.822C686.202 144.363 686.837 143.993 687.543 143.71C688.285 143.428 689.132 143.287 690.085 143.287C691.639 143.287 692.875 143.657 693.793 144.399C694.746 145.14 695.223 146.217 695.223 147.629C695.223 148.688 694.958 149.518 694.428 150.118C693.899 150.719 693.21 151.019 692.363 151.019C691.409 151.019 690.65 150.772 690.085 150.277C689.521 149.748 689.238 149.077 689.238 148.265C689.238 147.559 689.379 146.994 689.662 146.57C689.98 146.111 690.333 145.846 690.721 145.776V145.67C690.58 145.634 690.403 145.617 690.191 145.617C689.98 145.581 689.715 145.564 689.397 145.564C688.656 145.564 687.914 145.758 687.173 146.146C686.431 146.499 685.76 146.976 685.16 147.576C684.595 148.141 684.119 148.794 683.73 149.536C683.377 150.277 683.201 151.019 683.201 151.76V168.813H688.179V171.249H674.939V168.813ZM697.625 168.813H701.544V135.078L697.625 134.389V132.536L705.887 131V158.698H706.151L710.6 153.72L717.273 146.358H713.672V143.922H725.005V146.358H721.139L713.46 154.355L723.046 168.813H726.064V171.249H714.784V168.813H718.173L710.494 157.268L705.887 162.087V168.813H709.806V171.249H697.625V168.813Z" fill="white"/>
</svg>
