<svg width="727" height="200" viewBox="0 0 727 200" fill="none" xmlns="http://www.w3.org/2000/svg">
<path d="M20.6817 112.417C16.0228 112.417 12.2139 110.843 9.25485 107.695C6.29581 104.548 4.8163 100.14 4.8163 94.4742C4.8163 90.4449 5.50884 86.6359 6.89392 83.0473C8.279 79.3957 10.1992 76.1534 12.6546 73.3203C15.1729 70.4872 18.0375 68.2522 21.2484 66.6152C24.5222 64.9783 28.0164 64.1599 31.7309 64.1599C33.9344 64.1599 35.9806 64.5061 37.8693 65.1987C39.821 65.8912 41.3635 66.8671 42.4967 68.1262C43.6929 69.3854 44.2596 70.8649 44.1966 72.5648C44.1337 74.2647 43.5985 75.6183 42.5912 76.6256C41.5839 77.57 40.2617 78.0421 38.6248 78.0421C36.862 78.0421 35.4454 77.507 34.3751 76.4367C33.3049 75.3664 32.4549 74.1387 31.8253 72.7537L31.2587 71.1482C30.3773 69.0706 29.5903 67.8429 28.8978 67.4652C28.2682 67.0245 27.1664 67.4652 25.5925 68.7873C23.8926 70.2353 22.2872 72.187 20.7762 74.6424C19.3281 77.0978 18.1634 79.805 17.282 82.764C16.4006 85.723 15.9599 88.745 15.9599 91.83C15.9599 96.5518 16.9672 100.046 18.9819 102.313C21.0595 104.516 23.8297 105.618 27.2924 105.618C29.5588 105.618 31.7939 104.894 33.9974 103.446C36.2009 101.998 38.2471 99.9831 40.1358 97.4018L41.4579 98.3461C40.1358 100.802 38.4359 103.099 36.3583 105.24C34.2807 107.381 31.8883 109.112 29.1811 110.434C26.5369 111.756 23.7037 112.417 20.6817 112.417ZM54.0277 112.417C51.8871 112.417 50.0298 111.788 48.4559 110.529C46.9449 109.206 46.1894 107.255 46.1894 104.673C46.1894 103.225 46.3468 101.651 46.6616 99.9516C46.9764 98.2517 47.3226 96.5833 47.7004 94.9464L51.8556 76.3423C52.4222 73.8869 51.5723 72.0926 49.3058 70.9594L47.5115 70.2039L47.6059 69.165L65.4546 64.0654L66.3045 64.8209L59.6939 93.7187C59.3162 95.2927 59.0014 96.7092 58.7495 97.9684C58.4977 99.2276 58.3718 100.392 58.3718 101.463C58.3718 102.848 58.6866 103.855 59.3162 104.485C59.9457 105.051 60.7642 105.335 61.7715 105.335C63.2196 105.335 64.825 104.831 66.5878 103.824C68.3507 102.753 70.3968 101.116 72.7262 98.9128C72.7892 98.535 72.8836 98.1258 73.0096 97.6851L76.2204 82.4807C76.7241 80.0253 77.1963 77.57 77.637 75.1146C78.1406 72.5963 78.6128 70.0779 79.0535 67.5596L90.9526 64.0654L91.9914 64.9154L84.5309 99.1961C84.0272 101.4 83.7754 103.131 83.7754 104.39C83.7754 105.712 84.342 106.373 85.4753 106.373C86.3567 106.373 87.301 106.027 88.3084 105.335C89.3157 104.579 90.5434 103.477 91.9914 102.029L93.1247 103.162C91.5507 105.492 89.5361 107.632 87.0807 109.584C84.6883 111.473 81.9496 112.417 78.8647 112.417C76.913 112.417 75.276 111.756 73.9539 110.434C72.6948 109.049 72.0652 107.097 72.0652 104.579C72.0652 103.635 72.1281 102.722 72.2541 101.84C68.9802 105.114 65.8008 107.695 62.7159 109.584C59.6939 111.473 56.7978 112.417 54.0277 112.417ZM95.8338 111.662L94.8895 111.001L102.067 76.4367C102.381 74.7998 102.287 73.6036 101.783 72.8481C101.28 72.0296 100.43 71.3686 99.2336 70.8649L97.817 70.2039L98.0059 69.2595L114.438 64.0654L115.382 64.9154L112.833 80.4975C114.155 77.4755 115.697 74.7368 117.46 72.2815C119.223 69.8261 121.08 67.8744 123.032 66.4264C124.983 64.9154 126.935 64.1599 128.887 64.1599C130.839 64.1599 132.413 64.695 133.609 65.7653C134.805 66.7726 135.403 68.1262 135.403 69.8261C135.403 71.5889 134.868 73.037 133.798 74.1702C132.79 75.3035 131.405 75.8701 129.642 75.8701C128.257 75.8701 126.935 75.5238 125.676 74.8313C124.417 74.0758 123.189 73.0055 121.993 71.6204C119.789 73.2573 117.901 75.3979 116.327 78.0421C114.753 80.6234 113.305 83.4565 111.983 86.5415L111.038 90.8856C110.346 94.2224 109.685 97.5592 109.055 100.896C108.425 104.233 107.796 107.601 107.166 111.001L95.8338 111.662ZM143.285 112.417C139.318 112.417 136.108 111.63 133.652 110.056C131.197 108.482 129.969 106.247 129.969 103.351C129.969 101.84 130.504 100.518 131.575 99.385C132.645 98.2517 134.03 97.6851 135.73 97.6851C138.878 97.6851 140.829 99.6053 141.585 103.446L142.152 106.09C142.466 107.412 142.844 108.482 143.285 109.301C143.789 110.119 144.733 110.529 146.118 110.529C147.692 110.529 149.077 109.867 150.273 108.545C151.469 107.223 152.068 105.397 152.068 103.068C152.068 101.305 151.501 99.6053 150.368 97.9684C149.297 96.3315 147.472 94.5372 144.89 92.5855C142.309 90.5708 140.231 88.4932 138.657 86.3526C137.083 84.1491 136.296 81.5363 136.296 78.5143C136.296 75.8701 136.958 73.4777 138.28 71.3371C139.665 69.1336 141.648 67.4022 144.229 66.1431C146.811 64.8209 149.864 64.1599 153.39 64.1599C157.482 64.1599 160.693 64.9783 163.022 66.6152C165.415 68.2522 166.611 70.3613 166.611 72.9425C166.611 74.3276 166.202 75.4923 165.383 76.4367C164.565 77.3181 163.337 77.7588 161.7 77.7588C158.678 77.7588 156.632 75.933 155.562 72.2815L154.617 69.6372C154.303 68.3781 153.925 67.4967 153.484 66.993C153.043 66.4893 152.351 66.2375 151.406 66.2375C150.399 66.2375 149.36 66.8041 148.29 67.9374C147.22 69.0077 146.685 70.739 146.685 73.1314C146.685 75.3979 147.346 77.4755 148.668 79.3643C150.053 81.1901 152.099 83.1103 154.806 85.1249C157.576 87.2026 159.591 89.2172 160.85 91.1689C162.172 93.1206 162.833 95.4816 162.833 98.2517C162.833 100.833 162.078 103.194 160.567 105.335C159.056 107.475 156.852 109.206 153.956 110.529C151.06 111.788 147.503 112.417 143.285 112.417ZM184.198 58.8714C182.435 58.8714 180.892 58.3048 179.57 57.1715C178.311 55.9753 177.681 54.4014 177.681 52.4497C177.681 50.2461 178.437 48.4518 179.948 47.0667C181.522 45.6187 183.285 44.8947 185.236 44.8947C187.125 44.8947 188.668 45.4928 189.864 46.689C191.06 47.8852 191.658 49.4277 191.658 51.3164C191.658 53.457 190.903 55.2513 189.392 56.6993C187.881 58.1474 186.149 58.8714 184.198 58.8714ZM175.415 112.417C173.463 112.417 171.858 111.914 170.599 110.906C169.339 109.899 168.71 108.419 168.71 106.468C168.71 105.335 168.836 103.981 169.088 102.407C169.339 100.833 169.623 99.259 169.938 97.6851L174.376 76.4367C174.943 73.8554 174.03 72.0296 171.637 70.9594L170.126 70.2039L170.221 69.165L187.975 64.0654L188.919 64.9154L181.553 99.1016C181.301 100.235 181.113 101.211 180.987 102.029C180.861 102.785 180.798 103.54 180.798 104.296C180.798 105.681 181.427 106.373 182.687 106.373C183.631 106.373 184.575 106.09 185.52 105.523C186.464 104.894 187.66 103.886 189.108 102.501L189.958 103.351C188.384 105.681 186.37 107.79 183.914 109.679C181.522 111.504 178.689 112.417 175.415 112.417ZM205.483 111.851L204.538 111.095C203.972 104.17 203.374 97.748 202.744 91.83C202.115 85.849 201.485 79.9938 200.855 74.2647C200.729 72.8166 200.446 71.9037 200.005 71.526C199.565 71.0853 199.061 70.8649 198.494 70.8649C197.361 70.8649 195.787 72.0611 193.773 74.4535L192.639 73.3203C194.843 70.2983 196.952 68.0318 198.967 66.5208C201.044 64.9469 203.153 64.1599 205.294 64.1599C209.701 64.1599 212.188 67.0874 212.754 72.9425C213.132 77.4126 213.51 82.2289 213.888 87.3914C214.328 92.554 214.738 98.0628 215.115 103.918C217.508 101.022 219.743 98.2517 221.82 95.6075C223.961 92.9003 225.976 90.0986 227.864 87.2026C228.935 85.5656 229.533 83.9917 229.659 82.4807C229.785 80.9067 229.501 79.2384 228.809 77.4755L227.203 73.037C226.385 70.5816 226.511 68.441 227.581 66.6152C228.714 64.7895 230.351 63.8766 232.492 63.8766C234.695 63.8766 236.238 64.5376 237.119 65.8597C238.064 67.1819 238.536 68.7558 238.536 70.5816C238.536 71.8408 238.19 73.3832 237.497 75.209C236.867 77.0348 235.64 79.4902 233.814 82.5751C231.359 86.6674 228.211 91.2319 224.37 96.2685C220.53 101.305 216.186 106.279 211.338 111.19L205.483 111.851ZM254.298 112.417C249.576 112.417 245.736 110.875 242.777 107.79C239.818 104.705 238.338 100.329 238.338 94.6631C238.338 90.6338 239.031 86.7933 240.416 83.1418C241.801 79.4902 243.721 76.2478 246.176 73.4147C248.695 70.5186 251.591 68.2522 254.865 66.6152C258.138 64.9783 261.696 64.1599 265.536 64.1599C269.502 64.1599 272.524 65.0728 274.602 66.8986C276.743 68.6614 277.813 71.0223 277.813 73.9813C277.813 76.4367 276.648 78.8606 274.319 81.253C272.052 83.6454 268.841 85.8175 264.686 87.7692C260.531 89.6579 255.652 91.106 250.048 92.1133C250.111 96.4574 251.056 99.6368 252.881 101.651C254.707 103.666 257.226 104.673 260.436 104.673C263.144 104.673 265.63 103.949 267.897 102.501C270.163 100.99 272.084 99.2276 273.658 97.2129L274.602 97.874C273.343 100.329 271.706 102.659 269.691 104.862C267.74 107.066 265.473 108.892 262.892 110.34C260.31 111.725 257.446 112.417 254.298 112.417ZM264.875 66.7097C263.427 66.7097 261.853 67.3393 260.153 68.5984C258.516 69.8576 256.942 71.5889 255.431 73.7925C253.983 75.933 252.756 78.4199 251.748 81.253C250.804 84.0232 250.237 86.9822 250.048 90.1301C256.974 88.2414 261.884 85.7545 264.781 82.6696C267.74 79.5846 269.219 76.0904 269.219 72.187C269.219 70.2983 268.81 68.9132 267.991 68.0318C267.173 67.1504 266.134 66.7097 264.875 66.7097ZM286.79 112.228C284.649 112.228 282.886 111.567 281.501 110.245C280.179 108.86 279.518 107.223 279.518 105.335C279.518 102.942 280.368 100.927 282.068 99.2905C283.831 97.6536 285.845 96.8352 288.112 96.8352C290.252 96.8352 291.984 97.5277 293.306 98.9128C294.691 100.298 295.383 101.966 295.383 103.918C295.383 106.247 294.502 108.231 292.739 109.867C291.039 111.441 289.056 112.228 286.79 112.228Z" fill="black"/>
<path opacity="0.6" d="M9.95646 168.603H14.9877V136.668H5.66671V142.971H1.8536V134.073H32.6763V142.971H28.8632V136.668H19.5422V168.603H24.5734V171.039H9.95646V168.603ZM36.4017 168.603H40.3207V134.868L36.4017 134.179V132.326L44.6634 130.79V147.79H44.8753C45.0871 147.26 45.4049 146.713 45.8285 146.148C46.2522 145.583 46.7818 145.071 47.4173 144.612C48.0882 144.153 48.8472 143.783 49.6946 143.5C50.5773 143.218 51.5659 143.077 52.6604 143.077C55.9439 143.077 58.2918 143.942 59.704 145.672C61.1163 147.366 61.8224 149.926 61.8224 153.351V168.603H65.7415V171.039H53.5607V168.603H57.4797V153.721C57.4797 151.144 56.9678 149.238 55.9439 148.002C54.92 146.731 53.2959 146.095 51.0716 146.095C50.2948 146.095 49.5181 146.201 48.7413 146.413C47.9999 146.625 47.3114 146.96 46.6759 147.419C46.0757 147.878 45.5814 148.443 45.193 149.114C44.8399 149.785 44.6634 150.579 44.6634 151.497V168.603H48.5824V171.039H36.4017V168.603ZM82.3721 171.675C80.4303 171.675 78.6826 171.339 77.1291 170.669C75.6109 169.963 74.3222 168.992 73.263 167.756C72.2038 166.52 71.3918 165.02 70.8269 163.254C70.2619 161.489 69.9795 159.529 69.9795 157.376C69.9795 155.257 70.2796 153.333 70.8798 151.603C71.5153 149.838 72.3627 148.32 73.4219 147.049C74.5164 145.777 75.8051 144.807 77.288 144.136C78.7708 143.43 80.3949 143.077 82.1603 143.077C83.9609 143.077 85.5674 143.394 86.9796 144.03C88.3919 144.665 89.5747 145.566 90.5279 146.731C91.5165 147.861 92.2756 149.22 92.8052 150.809C93.3348 152.397 93.5996 154.128 93.5996 155.999V157.217H74.7988V158.594C74.7988 161.595 75.5403 163.96 77.0232 165.69C78.5413 167.42 80.5538 168.285 83.0606 168.285C85.2496 168.285 86.9796 167.844 88.2507 166.961C89.557 166.043 90.5809 164.861 91.3223 163.413L93.07 164.525C92.717 165.443 92.2227 166.344 91.5871 167.226C90.9869 168.074 90.2455 168.833 89.3628 169.504C88.4802 170.139 87.4563 170.651 86.2911 171.039C85.126 171.463 83.8197 171.675 82.3721 171.675ZM74.7988 154.781H89.0451V154.251C89.0451 153.015 88.9038 151.868 88.6214 150.809C88.3742 149.749 87.9682 148.832 87.4033 148.055C86.8384 147.278 86.1146 146.678 85.2319 146.254C84.3846 145.795 83.3607 145.566 82.1603 145.566C80.9598 145.566 79.9007 145.777 78.9827 146.201C78.0647 146.625 77.288 147.225 76.6524 148.002C76.0522 148.779 75.5932 149.697 75.2755 150.756C74.9577 151.78 74.7988 152.909 74.7988 154.145V154.781ZM117.037 137.41C116.119 137.41 115.413 137.145 114.919 136.615C114.46 136.051 114.23 135.38 114.23 134.603V134.338C114.23 133.561 114.46 132.908 114.919 132.379C115.413 131.814 116.119 131.531 117.037 131.531C117.955 131.531 118.661 131.814 119.156 132.379C119.65 132.908 119.897 133.561 119.897 134.338V134.603C119.897 135.38 119.65 136.051 119.156 136.615C118.661 137.145 117.955 137.41 117.037 137.41ZM110.947 168.603H114.866V147.154L110.947 146.466V144.665L119.209 143.077V168.603H123.128V171.039H110.947V168.603ZM127.652 168.603H131.571V147.154L127.652 146.466V144.665L135.808 143.077V147.843H136.02C136.232 147.313 136.549 146.766 136.973 146.201C137.432 145.636 137.979 145.124 138.615 144.665C139.286 144.206 140.062 143.836 140.945 143.553C141.828 143.235 142.799 143.077 143.858 143.077C147.141 143.077 149.489 143.942 150.901 145.672C152.349 147.366 153.073 149.926 153.073 153.351V168.603H156.992V171.039H144.811V168.603H148.73V153.721C148.73 148.637 146.594 146.095 142.322 146.095C141.545 146.095 140.768 146.201 139.992 146.413C139.25 146.625 138.562 146.96 137.926 147.419C137.326 147.878 136.832 148.443 136.443 149.114C136.09 149.785 135.914 150.579 135.914 151.497V168.603H139.833V171.039H127.652V168.603ZM169.526 171.357C167.655 171.357 166.366 170.986 165.66 170.245C164.954 169.468 164.601 168.162 164.601 166.326V146.307H161.105V143.712H161.582C162.323 143.712 162.906 143.659 163.33 143.553C163.789 143.447 164.142 143.306 164.389 143.129C164.671 142.918 164.865 142.671 164.971 142.388C165.113 142.07 165.236 141.717 165.342 141.329L166.56 136.615H168.943V143.712H175.987V146.307H168.943V168.444H175.987V170.192C175.669 170.369 175.263 170.527 174.769 170.669C174.31 170.81 173.78 170.933 173.18 171.039C172.615 171.145 172.015 171.216 171.38 171.251C170.744 171.322 170.126 171.357 169.526 171.357ZM192.221 171.675C188.938 171.675 186.572 170.828 185.125 169.133C183.712 167.403 183.006 164.808 183.006 161.348V147.154L179.087 146.466V144.665L187.349 143.077V160.977C187.349 166.096 189.485 168.656 193.757 168.656C194.534 168.656 195.293 168.55 196.034 168.338C196.811 168.127 197.5 167.791 198.1 167.332C198.735 166.873 199.23 166.308 199.583 165.637C199.971 164.967 200.165 164.172 200.165 163.254V147.154L196.246 146.466V144.665L204.508 143.077V167.597L208.427 168.285V170.086L200.271 171.675V166.908H200.059C199.848 167.438 199.512 167.985 199.053 168.55C198.629 169.115 198.082 169.627 197.411 170.086C196.776 170.545 196.017 170.916 195.134 171.198C194.251 171.516 193.281 171.675 192.221 171.675ZM219.026 137.41C218.109 137.41 217.402 137.145 216.908 136.615C216.449 136.051 216.22 135.38 216.22 134.603V134.338C216.22 133.561 216.449 132.908 216.908 132.379C217.402 131.814 218.109 131.531 219.026 131.531C219.944 131.531 220.651 131.814 221.145 132.379C221.639 132.908 221.886 133.561 221.886 134.338V134.603C221.886 135.38 221.639 136.051 221.145 136.615C220.651 137.145 219.944 137.41 219.026 137.41ZM212.936 168.603H216.855V147.154L212.936 146.466V144.665L221.198 143.077V168.603H225.117V171.039H212.936V168.603ZM237.691 171.357C235.82 171.357 234.531 170.986 233.825 170.245C233.119 169.468 232.766 168.162 232.766 166.326V146.307H229.27V143.712H229.747C230.489 143.712 231.071 143.659 231.495 143.553C231.954 143.447 232.307 143.306 232.554 143.129C232.836 142.918 233.031 142.671 233.137 142.388C233.278 142.07 233.401 141.717 233.507 141.329L234.725 136.615H237.109V143.712H244.152V146.307H237.109V168.444H244.152V170.192C243.834 170.369 243.428 170.527 242.934 170.669C242.475 170.81 241.946 170.933 241.345 171.039C240.78 171.145 240.18 171.216 239.545 171.251C238.909 171.322 238.291 171.357 237.691 171.357ZM254.402 137.41C253.484 137.41 252.778 137.145 252.284 136.615C251.825 136.051 251.595 135.38 251.595 134.603V134.338C251.595 133.561 251.825 132.908 252.284 132.379C252.778 131.814 253.484 131.531 254.402 131.531C255.32 131.531 256.026 131.814 256.52 132.379C257.015 132.908 257.262 133.561 257.262 134.338V134.603C257.262 135.38 257.015 136.051 256.52 136.615C256.026 137.145 255.32 137.41 254.402 137.41ZM248.312 168.603H252.231V147.154L248.312 146.466V144.665L256.573 143.077V168.603H260.492V171.039H248.312V168.603ZM265.229 146.148H262.475V143.712H273.808V146.148H269.995L277.356 166.167H277.568L284.718 146.148H280.905V143.712H290.543V146.148H287.79L278.204 171.039H274.867L265.229 146.148ZM304.918 171.675C302.976 171.675 301.228 171.339 299.674 170.669C298.156 169.963 296.868 168.992 295.808 167.756C294.749 166.52 293.937 165.02 293.372 163.254C292.807 161.489 292.525 159.529 292.525 157.376C292.525 155.257 292.825 153.333 293.425 151.603C294.061 149.838 294.908 148.32 295.967 147.049C297.062 145.777 298.35 144.807 299.833 144.136C301.316 143.43 302.94 143.077 304.706 143.077C306.506 143.077 308.113 143.394 309.525 144.03C310.937 144.665 312.12 145.566 313.073 146.731C314.062 147.861 314.821 149.22 315.351 150.809C315.88 152.397 316.145 154.128 316.145 155.999V157.217H297.344V158.594C297.344 161.595 298.086 163.96 299.569 165.69C301.087 167.42 303.099 168.285 305.606 168.285C307.795 168.285 309.525 167.844 310.796 166.961C312.102 166.043 313.126 164.861 313.868 163.413L315.615 164.525C315.262 165.443 314.768 166.344 314.133 167.226C313.532 168.074 312.791 168.833 311.908 169.504C311.026 170.139 310.002 170.651 308.837 171.039C307.671 171.463 306.365 171.675 304.918 171.675ZM297.344 154.781H311.59V154.251C311.59 153.015 311.449 151.868 311.167 150.809C310.92 149.749 310.514 148.832 309.949 148.055C309.384 147.278 308.66 146.678 307.777 146.254C306.93 145.795 305.906 145.566 304.706 145.566C303.505 145.566 302.446 145.777 301.528 146.201C300.61 146.625 299.833 147.225 299.198 148.002C298.598 148.779 298.139 149.697 297.821 150.756C297.503 151.78 297.344 152.909 297.344 154.145V154.781ZM333.757 168.603H337.729V136.51H333.757V134.073H346.256V136.51H342.284V168.444H355.841V161.665H359.654V171.039H333.757V168.603ZM365.202 168.603H369.174V136.51H365.202V134.073H377.701V136.51H373.729V168.444H387.286V161.665H391.099V171.039H365.202V168.603ZM396.647 168.603H400.619V136.51H396.647V134.073H405.968L416.772 156.952H416.931L428.264 134.073H437.002V136.51H433.03V168.603H437.002V171.039H424.504V168.603H428.476V139.422H428.264L425.934 144.559L415.766 164.843L406.709 145.883L403.744 139.422H403.532V168.603H407.504V171.039H396.647V168.603ZM454.611 168.603H458.53V146.307H454.611V143.712H458.53V139.422C458.53 138.151 458.742 136.986 459.166 135.927C459.589 134.868 460.172 133.967 460.913 133.226C461.69 132.449 462.59 131.849 463.614 131.425C464.674 131.002 465.821 130.79 467.057 130.79C468.963 130.79 470.464 131.161 471.558 131.902C472.688 132.643 473.253 133.703 473.253 135.08C473.253 135.998 472.988 136.739 472.459 137.304C471.964 137.834 471.311 138.098 470.499 138.098C469.722 138.098 469.087 137.851 468.593 137.357C468.134 136.863 467.904 136.262 467.904 135.556C467.904 134.32 468.381 133.508 469.334 133.12V133.014C469.087 132.944 468.804 132.891 468.487 132.855C468.169 132.82 467.816 132.802 467.427 132.802C465.945 132.802 464.815 133.332 464.038 134.391C463.261 135.45 462.873 136.933 462.873 138.84V143.712H468.804V146.307H462.873V168.603H467.851V171.039H454.611V168.603ZM472.978 168.603H476.897V147.154L472.978 146.466V144.665L481.133 143.077V147.843H481.398C481.645 147.278 481.945 146.713 482.298 146.148C482.687 145.583 483.146 145.071 483.675 144.612C484.24 144.153 484.876 143.783 485.582 143.5C486.323 143.218 487.171 143.077 488.124 143.077C489.678 143.077 490.913 143.447 491.831 144.189C492.785 144.93 493.261 146.007 493.261 147.419C493.261 148.478 492.996 149.308 492.467 149.908C491.937 150.509 491.249 150.809 490.401 150.809C489.448 150.809 488.689 150.562 488.124 150.067C487.559 149.538 487.277 148.867 487.277 148.055C487.277 147.349 487.418 146.784 487.7 146.36C488.018 145.901 488.371 145.636 488.76 145.566V145.46C488.618 145.424 488.442 145.407 488.23 145.407C488.018 145.371 487.753 145.354 487.436 145.354C486.694 145.354 485.953 145.548 485.211 145.936C484.47 146.289 483.799 146.766 483.199 147.366C482.634 147.931 482.157 148.584 481.769 149.326C481.416 150.067 481.239 150.809 481.239 151.55V168.603H486.218V171.039H472.978V168.603ZM504.561 171.675C502.019 171.675 500.024 171.022 498.576 169.715C497.164 168.374 496.458 166.555 496.458 164.26C496.458 162.954 496.67 161.807 497.093 160.818C497.517 159.794 498.205 158.947 499.159 158.276C500.147 157.605 501.418 157.093 502.972 156.74C504.525 156.387 506.414 156.211 508.639 156.211H512.558V152.186C512.558 150.032 512.028 148.39 510.969 147.26C509.945 146.095 508.391 145.513 506.308 145.513C505.39 145.513 504.543 145.601 503.766 145.777C502.99 145.919 502.354 146.131 501.86 146.413V146.519C502.248 146.731 502.619 147.049 502.972 147.472C503.36 147.896 503.554 148.496 503.554 149.273C503.554 150.191 503.29 150.915 502.76 151.444C502.23 151.938 501.524 152.186 500.642 152.186C499.794 152.186 499.088 151.938 498.523 151.444C497.994 150.915 497.729 150.138 497.729 149.114C497.729 148.337 497.958 147.596 498.417 146.89C498.876 146.148 499.529 145.495 500.377 144.93C501.224 144.365 502.266 143.924 503.501 143.606C504.772 143.253 506.202 143.077 507.791 143.077C510.651 143.077 512.875 143.818 514.464 145.301C516.088 146.784 516.9 148.867 516.9 151.55V168.762H520.872V170.616C520.484 170.898 519.954 171.145 519.284 171.357C518.648 171.569 517.924 171.675 517.112 171.675C515.735 171.675 514.676 171.287 513.935 170.51C513.193 169.733 512.822 168.691 512.822 167.385V167.014H512.558C512.31 167.615 511.975 168.197 511.551 168.762C511.163 169.327 510.651 169.821 510.016 170.245C509.38 170.669 508.603 171.004 507.685 171.251C506.803 171.534 505.761 171.675 504.561 171.675ZM506.414 168.762C508.109 168.762 509.557 168.338 510.757 167.491C511.957 166.608 512.558 165.267 512.558 163.466V158.329H509.115C507.597 158.329 506.326 158.453 505.302 158.7C504.278 158.912 503.466 159.247 502.866 159.706C502.266 160.13 501.824 160.659 501.542 161.295C501.295 161.93 501.171 162.672 501.171 163.519V164.631C501.171 165.973 501.63 166.997 502.548 167.703C503.466 168.409 504.755 168.762 506.414 168.762ZM525.369 168.603H529.288V147.154L525.369 146.466V144.665L533.524 143.077V147.843H533.736C533.948 147.278 534.266 146.713 534.689 146.148C535.113 145.583 535.643 145.071 536.278 144.612C536.949 144.153 537.708 143.783 538.556 143.5C539.403 143.218 540.356 143.077 541.415 143.077C543.746 143.077 545.599 143.518 546.976 144.401C548.353 145.283 549.306 146.643 549.836 148.478H549.995C550.277 147.843 550.648 147.207 551.107 146.572C551.566 145.936 552.131 145.354 552.802 144.824C553.473 144.295 554.249 143.871 555.132 143.553C556.05 143.235 557.109 143.077 558.31 143.077C561.593 143.077 563.923 143.942 565.3 145.672C566.713 147.402 567.419 149.979 567.419 153.404V168.603H571.338V171.039H559.157V168.603H563.076V153.721C563.076 148.637 560.975 146.095 556.774 146.095C555.997 146.095 555.22 146.219 554.444 146.466C553.702 146.678 553.031 147.013 552.431 147.472C551.866 147.896 551.407 148.461 551.054 149.167C550.701 149.838 550.524 150.632 550.524 151.55V168.603H554.444V171.039H542.263V168.603H546.182V153.721C546.182 148.637 544.099 146.095 539.932 146.095C539.12 146.095 538.344 146.219 537.602 146.466C536.861 146.678 536.19 147.013 535.59 147.472C534.99 147.896 534.513 148.461 534.16 149.167C533.807 149.838 533.63 150.632 533.63 151.55V168.603H537.549V171.039H525.369V168.603ZM587.974 171.675C586.032 171.675 584.284 171.339 582.731 170.669C581.213 169.963 579.924 168.992 578.865 167.756C577.805 166.52 576.993 165.02 576.428 163.254C575.864 161.489 575.581 159.529 575.581 157.376C575.581 155.257 575.881 153.333 576.481 151.603C577.117 149.838 577.964 148.32 579.024 147.049C580.118 145.777 581.407 144.807 582.89 144.136C584.372 143.43 585.997 143.077 587.762 143.077C589.563 143.077 591.169 143.394 592.581 144.03C593.994 144.665 595.176 145.566 596.13 146.731C597.118 147.861 597.877 149.22 598.407 150.809C598.936 152.397 599.201 154.128 599.201 155.999V157.217H580.4V158.594C580.4 161.595 581.142 163.96 582.625 165.69C584.143 167.42 586.155 168.285 588.662 168.285C590.851 168.285 592.581 167.844 593.852 166.961C595.159 166.043 596.183 164.861 596.924 163.413L598.672 164.525C598.319 165.443 597.824 166.344 597.189 167.226C596.589 168.074 595.847 168.833 594.964 169.504C594.082 170.139 593.058 170.651 591.893 171.039C590.728 171.463 589.421 171.675 587.974 171.675ZM580.4 154.781H594.647V154.251C594.647 153.015 594.505 151.868 594.223 150.809C593.976 149.749 593.57 148.832 593.005 148.055C592.44 147.278 591.716 146.678 590.834 146.254C589.986 145.795 588.962 145.566 587.762 145.566C586.561 145.566 585.502 145.777 584.584 146.201C583.666 146.625 582.89 147.225 582.254 148.002C581.654 148.779 581.195 149.697 580.877 150.756C580.559 151.78 580.4 152.909 580.4 154.145V154.781ZM604.769 146.148H602.015V143.712H612.978V146.148H609.165L614.62 166.803H614.831L621.451 143.712H625.106L631.196 166.803H631.408L636.969 146.148H633.156V143.712H642.318V146.148H639.564L632.626 171.039H628.389L622.511 149.591H622.299L615.891 171.039H611.654L604.769 146.148ZM657.332 169.08C658.639 169.08 659.768 168.868 660.722 168.444C661.71 167.985 662.505 167.367 663.105 166.591C663.74 165.779 664.199 164.843 664.482 163.784C664.8 162.689 664.958 161.507 664.958 160.236V154.516C664.958 153.245 664.8 152.08 664.482 151.021C664.199 149.926 663.74 148.99 663.105 148.214C662.505 147.402 661.71 146.784 660.722 146.36C659.768 145.901 658.639 145.672 657.332 145.672C655.991 145.672 654.843 145.901 653.89 146.36C652.937 146.784 652.142 147.402 651.507 148.214C650.906 148.99 650.447 149.926 650.13 151.021C649.847 152.08 649.706 153.245 649.706 154.516V160.236C649.706 161.507 649.847 162.689 650.13 163.784C650.447 164.843 650.906 165.779 651.507 166.591C652.142 167.367 652.937 167.985 653.89 168.444C654.843 168.868 655.991 169.08 657.332 169.08ZM657.332 171.675C655.461 171.675 653.749 171.339 652.195 170.669C650.642 169.998 649.318 169.045 648.223 167.809C647.129 166.538 646.281 165.037 645.681 163.307C645.081 161.542 644.781 159.565 644.781 157.376C644.781 155.222 645.081 153.262 645.681 151.497C646.281 149.732 647.129 148.231 648.223 146.996C649.318 145.725 650.642 144.754 652.195 144.083C653.749 143.412 655.461 143.077 657.332 143.077C659.203 143.077 660.916 143.412 662.469 144.083C664.023 144.754 665.347 145.725 666.441 146.996C667.536 148.231 668.383 149.732 668.983 151.497C669.584 153.262 669.884 155.222 669.884 157.376C669.884 159.565 669.584 161.542 668.983 163.307C668.383 165.037 667.536 166.538 666.441 167.809C665.347 169.045 664.023 169.998 662.469 170.669C660.916 171.339 659.203 171.675 657.332 171.675ZM674.939 168.603H678.858V147.154L674.939 146.466V144.665L683.095 143.077V147.843H683.36C683.607 147.278 683.907 146.713 684.26 146.148C684.648 145.583 685.107 145.071 685.637 144.612C686.202 144.153 686.837 143.783 687.543 143.5C688.285 143.218 689.132 143.077 690.085 143.077C691.639 143.077 692.875 143.447 693.793 144.189C694.746 144.93 695.223 146.007 695.223 147.419C695.223 148.478 694.958 149.308 694.428 149.908C693.899 150.509 693.21 150.809 692.363 150.809C691.409 150.809 690.65 150.562 690.085 150.067C689.521 149.538 689.238 148.867 689.238 148.055C689.238 147.349 689.379 146.784 689.662 146.36C689.98 145.901 690.333 145.636 690.721 145.566V145.46C690.58 145.424 690.403 145.407 690.191 145.407C689.98 145.371 689.715 145.354 689.397 145.354C688.656 145.354 687.914 145.548 687.173 145.936C686.431 146.289 685.76 146.766 685.16 147.366C684.595 147.931 684.119 148.584 683.73 149.326C683.377 150.067 683.201 150.809 683.201 151.55V168.603H688.179V171.039H674.939V168.603ZM697.625 168.603H701.544V134.868L697.625 134.179V132.326L705.887 130.79V158.488H706.151L710.6 153.51L717.273 146.148H713.672V143.712H725.005V146.148H721.139L713.46 154.145L723.046 168.603H726.064V171.039H714.784V168.603H718.173L710.494 157.058L705.887 161.877V168.603H709.806V171.039H697.625V168.603Z" fill="black"/>
</svg>
